<?xml version="1.0" encoding="utf-8"?>
<!-- Generator: Adobe Illustrator 27.4.1, SVG Export Plug-In . SVG Version: 6.00 Build 0)  -->
<svg version="1.1" id="Layer_1" xmlns="http://www.w3.org/2000/svg" xmlns:xlink="http://www.w3.org/1999/xlink" x="0px" y="0px"
	 viewBox="0 0 423.64 111.22" style="enable-background:new 0 0 423.64 111.22;" xml:space="preserve">
<style type="text/css">
	.st0{fill:#B40101;}
	.st1{fill:#828282;}
</style>
<g id="house_00000032634695812037472910000013006636734078361006_">
	<g>
		<polygon class="st0" points="42.55,43.12 84.6,70.34 84.6,47.53 42.3,20.38 0,48.93 0,111.22 84.6,111.22 84.6,91.25 17.11,91.25 
			17.11,61.16 		"/>
	</g>
</g>
<g id="clouds_00000001653758473860607480000002636009520601130174_">
	<g>
		<rect x="0" y="0" class="st1" width="84.6" height="19.01"/>
	</g>
</g>
<g id="Le-Chat_00000153663683536216602640000010454511863959865494_">
	<g>
		<path class="st0" d="M120.5,5.78h-17.37v66.76h38.74V58.33H120.5V5.78z M165.03,45.05h20.73V31.4h-20.73V20h22.13V5.78h-39.49
			v66.76H188V58.33h-22.97V45.05z M193.51,52.63h29.13V38.42h-29.13V52.63z M256.85,53.61c-0.16,2.09-0.42,3.76-0.79,5
			c-0.37,1.25-0.9,2.14-1.59,2.66c-0.69,0.53-1.56,0.79-2.61,0.79c-1.31,0-2.35-0.34-3.13-1.03c-0.78-0.69-1.37-1.9-1.77-3.65
			c-0.41-1.74-0.67-4.1-0.79-7.06c-0.13-2.96-0.19-6.69-0.19-11.17s0.06-8.21,0.19-11.17c0.12-2.96,0.39-5.31,0.79-7.06
			c0.4-1.74,0.99-2.96,1.77-3.65c0.78-0.69,1.82-1.03,3.13-1.03c1.68,0,2.89,0.69,3.64,2.06c0.75,1.37,1.12,3.96,1.12,7.76v3.74
			h16.8v-4.21c0-3.24-0.39-6.16-1.17-8.74c-0.78-2.59-2.02-4.8-3.73-6.64c-1.71-1.84-3.94-3.26-6.68-4.25c-2.74-1-6.07-1.5-9.99-1.5
			c-4.48,0-8.25,0.61-11.3,1.82c-3.05,1.22-5.51,3.2-7.38,5.94c-1.87,2.74-3.19,6.33-3.97,10.75c-0.78,4.43-1.17,9.82-1.17,16.18
			c0,6.23,0.33,11.55,0.98,15.94c0.65,4.39,1.85,7.98,3.59,10.75c1.74,2.77,4.17,4.75,7.28,5.94c3.11,1.18,7.1,1.78,11.95,1.78
			c2.8,0,5.52-0.3,8.17-0.89c2.64-0.59,4.99-1.74,7.05-3.46c2.05-1.71,3.7-4.07,4.95-7.06c1.24-2.99,1.87-6.83,1.87-11.5v-4.96
			h-16.8C257.08,48.89,257,51.52,256.85,53.61z M309.46,30.28h-10.64V5.78h-17.37v66.76h17.37V45.05h10.64v27.49h17.37V5.78h-17.37
			V30.28z M347.27,5.78l-15.96,66.76h18.21l1.77-11.69h13.82l1.77,11.69h18.49L369.12,5.78H347.27z M353.34,47.77l4.76-28.33h0.19
			l4.76,28.33H353.34z M380.32,5.78v14.77h12.88v51.99h17.37V20.56h13.07V5.78H380.32z"/>
	</g>
</g>
<g>
	<path class="st1" d="M122.86,84.35c1.83,0,3.26,0.46,4.28,1.39c1.02,0.93,1.53,2.34,1.53,4.23c0,1.47-0.3,2.67-0.89,3.59
		c-0.59,0.93-1.51,1.52-2.75,1.79v0.06c1.1,0.16,1.91,0.52,2.41,1.07s0.83,1.44,0.95,2.66c0.04,0.41,0.07,0.85,0.09,1.33
		c0.02,0.48,0.04,1.01,0.06,1.6c0.04,1.16,0.1,2.05,0.18,2.66c0.12,0.61,0.39,1.03,0.79,1.25v0.18h-4.77
		c-0.22-0.31-0.37-0.66-0.43-1.05s-0.1-0.81-0.12-1.24l-0.12-4.19c-0.04-0.86-0.26-1.53-0.64-2.02c-0.39-0.49-1.04-0.73-1.96-0.73
		h-2.35v9.23h-4.4V84.35H122.86z M120.97,93.88c1.06,0,1.87-0.25,2.45-0.75c0.57-0.5,0.86-1.34,0.86-2.52
		c0-2.02-1.02-3.03-3.06-3.03h-2.08v6.3H120.97z"/>
	<path class="st1" d="M157.68,87.96h-7.79v5.14h7.34v3.61h-7.34v5.87h8.1v3.61h-12.5V84.35h12.2V87.96z"/>
	<path class="st1" d="M183.63,84.35l5.78,21.82h-4.58l-1.01-4.62H178l-1.01,4.62h-4.58l5.78-21.82H183.63z M183.05,97.95l-2.11-9.81
		h-0.06l-2.11,9.81H183.05z"/>
	<path class="st1" d="M204.69,84.35h4.4v18.22h7.79v3.61h-12.2V84.35z"/>
	<path class="st1" d="M265.88,87.96h-7.79v5.14h7.34v3.61h-7.34v5.87h8.1v3.61h-12.5V84.35h12.2V87.96z"/>
	<path class="st1" d="M285.69,100c0,0.51,0.04,0.97,0.12,1.39c0.08,0.42,0.23,0.77,0.46,1.05c0.22,0.29,0.52,0.51,0.9,0.67
		c0.38,0.16,0.85,0.24,1.42,0.24c0.67,0,1.28-0.22,1.82-0.66c0.54-0.44,0.81-1.12,0.81-2.03c0-0.49-0.07-0.91-0.2-1.27
		c-0.13-0.36-0.35-0.68-0.66-0.96c-0.31-0.29-0.71-0.54-1.21-0.78s-1.12-0.47-1.85-0.72c-0.98-0.33-1.82-0.68-2.54-1.07
		c-0.71-0.39-1.31-0.84-1.79-1.36c-0.48-0.52-0.83-1.12-1.05-1.8c-0.22-0.68-0.34-1.47-0.34-2.37c0-2.16,0.6-3.77,1.8-4.83
		c1.2-1.06,2.85-1.59,4.95-1.59c0.98,0,1.88,0.11,2.71,0.32s1.54,0.56,2.14,1.04c0.6,0.48,1.07,1.09,1.41,1.83
		c0.34,0.74,0.5,1.63,0.5,2.67v0.61h-4.22c0-1.04-0.18-1.84-0.55-2.4c-0.37-0.56-0.98-0.84-1.83-0.84c-0.49,0-0.9,0.07-1.22,0.21
		s-0.59,0.33-0.78,0.57s-0.33,0.5-0.4,0.81s-0.11,0.62-0.11,0.95c0,0.67,0.14,1.24,0.43,1.7c0.29,0.46,0.9,0.88,1.83,1.27l3.39,1.47
		c0.84,0.37,1.52,0.75,2.05,1.15c0.53,0.4,0.95,0.83,1.27,1.28c0.32,0.46,0.54,0.96,0.66,1.51c0.12,0.55,0.18,1.16,0.18,1.83
		c0,2.3-0.67,3.98-2,5.03c-1.33,1.05-3.19,1.57-5.58,1.57c-2.49,0-4.26-0.54-5.33-1.62c-1.07-1.08-1.6-2.63-1.6-4.65v-0.89h4.4V100z
		"/>
	<path class="st1" d="M324.54,87.96h-4.77v18.22h-4.4V87.96h-4.77v-3.61h13.94V87.96z"/>
	<path class="st1" d="M348.2,84.35l5.78,21.82h-4.58l-1.01-4.62h-5.81l-1.01,4.62h-4.58l5.78-21.82H348.2z M347.62,97.95l-2.11-9.81
		h-0.06l-2.11,9.81H347.62z"/>
	<path class="st1" d="M380.35,87.96h-4.77v18.22h-4.4V87.96h-4.77v-3.61h13.94V87.96z"/>
	<path class="st1" d="M408.2,87.96h-7.79v5.14h7.34v3.61h-7.34v5.87h8.1v3.61H396V84.35h12.2V87.96z"/>
</g>
</svg>
