<?xml version="1.0" encoding="utf-8"?>
<!-- Generator: Adobe Illustrator 27.4.1, SVG Export Plug-In . SVG Version: 6.00 Build 0)  -->
<svg version="1.1" id="Layer_1" xmlns="http://www.w3.org/2000/svg" xmlns:xlink="http://www.w3.org/1999/xlink" x="0px" y="0px"
	 viewBox="0 0 312.29 249.17" style="enable-background:new 0 0 312.29 249.17;" xml:space="preserve">
<style type="text/css">
	.st0{fill:#B40101;}
	.st1{fill:#828282;}
</style>
<g id="house">
	<g>
		<polygon class="st0" points="156.66,49.2 204.64,80.27 204.64,54.24 156.38,23.26 108.12,55.83 108.12,126.92 204.64,126.92 
			204.64,104.14 127.64,104.14 127.64,69.8 		"/>
	</g>
</g>
<g id="clouds">
	<g>
		<rect x="108.12" y="0" class="st1" width="96.53" height="21.7"/>
	</g>
</g>
<g id="Le-Chat_-_font">
	<g>
		<path class="st0" d="M16.92,148.23H0v65.05h37.75v-13.85H16.92V148.23z M60.31,186.49h20.19v-13.3H60.31v-11.12h21.56v-13.85
			H43.39v65.05h39.3v-13.85H60.31V186.49z M88.06,193.87h28.38v-13.85H88.06V193.87z M149.78,194.83c-0.15,2.04-0.41,3.66-0.77,4.87
			c-0.36,1.22-0.88,2.08-1.55,2.6c-0.67,0.52-1.52,0.77-2.55,0.77c-1.27,0-2.29-0.33-3.05-1c-0.76-0.67-1.33-1.85-1.73-3.55
			c-0.4-1.7-0.65-3.99-0.77-6.88c-0.12-2.88-0.18-6.51-0.18-10.89s0.06-8,0.18-10.89c0.12-2.88,0.38-5.18,0.77-6.88
			c0.39-1.7,0.97-2.88,1.73-3.55c0.76-0.67,1.77-1,3.05-1c1.64,0,2.82,0.67,3.55,2c0.73,1.34,1.09,3.86,1.09,7.56v3.64h16.37v-4.1
			c0-3.16-0.38-6-1.14-8.52c-0.76-2.52-1.97-4.68-3.64-6.47c-1.67-1.79-3.84-3.17-6.5-4.15c-2.67-0.97-5.91-1.46-9.73-1.46
			c-4.37,0-8.04,0.59-11.01,1.78c-2.97,1.18-5.37,3.11-7.19,5.79c-1.82,2.67-3.11,6.17-3.87,10.48c-0.76,4.31-1.14,9.57-1.14,15.76
			c0,6.07,0.32,11.25,0.96,15.53c0.64,4.28,1.8,7.78,3.5,10.48c1.7,2.7,4.06,4.63,7.1,5.79c3.03,1.15,6.91,1.73,11.64,1.73
			c2.73,0,5.38-0.29,7.96-0.87c2.58-0.58,4.87-1.7,6.87-3.37c2-1.67,3.61-3.96,4.82-6.88c1.21-2.92,1.82-6.65,1.82-11.21v-4.83H150
			C150,190.23,149.93,192.79,149.78,194.83z M201.04,172.1h-10.37v-23.87h-16.92v65.05h16.92v-26.79h10.37v26.79h16.92v-65.05
			h-16.92V172.1z M237.88,148.23l-15.56,65.05h17.74l1.73-11.39h13.46l1.73,11.39h18.01l-15.83-65.05H237.88z M243.79,189.13
			l4.64-27.61h0.18l4.64,27.61H243.79z M270.08,148.23v14.4h12.55v50.66h16.92v-50.66h12.74v-14.4H270.08z"/>
	</g>
</g>
<g id="Real_Estate_-_font">
	<g>
		<path class="st1" d="M27.68,247.4c-0.08-0.61-0.15-1.49-0.19-2.65c-0.02-0.59-0.04-1.12-0.06-1.6c-0.02-0.48-0.05-0.92-0.09-1.33
			c-0.13-1.22-0.45-2.11-0.98-2.65c-0.53-0.55-1.36-0.9-2.5-1.07v-0.06c1.29-0.26,2.23-0.86,2.85-1.78
			c0.61-0.93,0.92-2.12,0.92-3.58c0-1.89-0.53-3.3-1.58-4.23c-1.05-0.93-2.53-1.39-4.43-1.39h-8.41v21.78h4.55v-9.21h2.43
			c0.95,0,1.62,0.24,2.02,0.73c0.4,0.49,0.62,1.16,0.66,2.01l0.13,4.18c0.02,0.43,0.06,0.84,0.13,1.24c0.06,0.4,0.21,0.75,0.44,1.05
			h4.93v-0.18C28.08,248.43,27.8,248.01,27.68,247.4z M22.18,235.82c-0.59,0.5-1.43,0.75-2.53,0.75h-1.9v-6.29h2.15
			c2.11,0,3.16,1.01,3.16,3.02C23.06,234.49,22.77,235.32,22.18,235.82z M47.79,239.38h7.59v-3.6h-7.59v-5.13h8.06v-3.6H43.24v21.78
			h12.93v-3.6h-8.38V239.38z M75.3,227.05l-5.98,21.78h4.74l1.04-4.61h6.01l1.04,4.61h4.74l-5.98-21.78H75.3z M75.9,240.63
			l2.18-9.79h0.06l2.18,9.79H75.9z M105.5,227.05h-4.55v21.78h12.62v-3.6h-8.06V227.05z M152.2,239.38h7.59v-3.6h-7.59v-5.13h8.06
			v-3.6h-12.62v21.78h12.93v-3.6h-8.38V239.38z M188.58,239.24c-0.33-0.46-0.76-0.88-1.31-1.28c-0.55-0.4-1.25-0.78-2.12-1.14
			l-3.51-1.46c-0.97-0.39-1.6-0.81-1.9-1.27c-0.3-0.46-0.44-1.02-0.44-1.69c0-0.33,0.04-0.64,0.11-0.95
			c0.07-0.31,0.21-0.57,0.41-0.81c0.2-0.23,0.47-0.42,0.81-0.56c0.34-0.14,0.76-0.21,1.26-0.21c0.89,0,1.52,0.28,1.9,0.84
			c0.38,0.56,0.57,1.36,0.57,2.4h4.36v-0.61c0-1.04-0.17-1.93-0.52-2.67c-0.35-0.74-0.83-1.35-1.45-1.83
			c-0.62-0.48-1.36-0.82-2.21-1.04c-0.85-0.21-1.79-0.32-2.8-0.32c-2.17,0-3.88,0.53-5.12,1.59c-1.24,1.06-1.87,2.66-1.87,4.82
			c0,0.9,0.12,1.68,0.35,2.36c0.23,0.68,0.6,1.28,1.09,1.8c0.5,0.52,1.11,0.97,1.85,1.36c0.74,0.39,1.61,0.74,2.62,1.07
			c0.76,0.24,1.4,0.48,1.91,0.72c0.52,0.23,0.93,0.49,1.25,0.78c0.32,0.29,0.54,0.61,0.68,0.96c0.14,0.36,0.21,0.78,0.21,1.27
			c0,0.92-0.28,1.59-0.84,2.03c-0.56,0.44-1.19,0.66-1.88,0.66c-0.59,0-1.08-0.08-1.47-0.24c-0.39-0.16-0.7-0.39-0.93-0.67
			c-0.23-0.28-0.39-0.64-0.47-1.05c-0.08-0.42-0.13-0.88-0.13-1.39v-0.64h-4.55v0.88c0,2.01,0.55,3.56,1.66,4.64
			c1.11,1.08,2.95,1.62,5.52,1.62c2.47,0,4.39-0.52,5.77-1.57c1.38-1.05,2.07-2.72,2.07-5.02c0-0.67-0.06-1.28-0.19-1.83
			C189.14,240.2,188.91,239.7,188.58,239.24z M202.99,230.65h4.93v18.18h4.55v-18.18h4.93v-3.6h-14.42V230.65z M234.48,227.05
			l-5.98,21.78h4.74l1.04-4.61h6.01l1.04,4.61h4.74l-5.98-21.78H234.48z M235.08,240.63l2.18-9.79h0.06l2.18,9.79H235.08z
			 M257.19,230.65h4.93v18.18h4.55v-18.18h4.93v-3.6h-14.42V230.65z M290.58,245.24v-5.86h7.59v-3.6h-7.59v-5.13h8.06v-3.6h-12.62
			v21.78h12.93v-3.6H290.58z"/>
	</g>
</g>
</svg>
